<svg width="1080" height="1080" viewBox="0 0 1080 1080" fill="none" xmlns="http://www.w3.org/2000/svg">
<rect width="1080" height="1080" fill="#6D57FF"/>
<path d="M432.378 123H681.867V477.778H645.244V315.267H644.885C640.838 270.352 603.09 235.156 557.122 235.156C511.154 235.156 473.407 270.352 469.359 315.267H469V477.778H432.378V123Z" fill="white"/>
<path d="M366 173.356L380.878 223.711H393.467V427.422C387.146 427.422 382.022 432.546 382.022 438.867V452.6H379.733C373.413 452.6 368.289 457.724 368.289 464.044V477.778H496.467V464.044C496.467 457.724 491.343 452.6 485.022 452.6H482.733V438.867C482.733 432.546 477.609 427.422 471.289 427.422H457.556V173.356H366Z" fill="white"/>
<path d="M647.533 427.422C641.213 427.422 636.089 432.546 636.089 438.867V452.6H633.8C627.479 452.6 622.356 457.724 622.356 464.044V477.778H750.533V464.044C750.533 457.724 745.409 452.6 739.089 452.6H736.8V438.867C736.8 432.546 731.676 427.422 725.356 427.422V223.711H737.944L752.822 173.356H661.267V427.422H647.533Z" fill="white"/>
<path d="M277 279H840.867V794.586L558.934 957.403L277 794.586V279ZM770.384 490.45H347.483V754.763L558.934 875.994L770.384 754.763V490.45ZM770.384 349.483H347.483V419.967H770.384V349.483Z" fill="#A79AFF"/>
<path d="M770.384 490.45H347.483V754.763L558.934 875.994L770.384 754.763V490.45Z" fill="#8A79FF"/>
<path d="M770.384 349.483H347.483V419.967H770.384V349.483Z" fill="#8A79FF"/>
</svg>
